<svg t="1694417044397" class="icon" viewBox="0 0 1024 1024" version="1.1" xmlns="http://www.w3.org/2000/svg" p-id="1814" width="64" height="64"><path d="M255.96 649.43c-13.48-10.62-15.81-30.16-5.18-43.65l145.38-160.86 163.21 96.92 165.39-162.56c10.88-13.28 30.46-15.24 43.74-4.36 13.28 10.88 15.23 30.46 4.36 43.74L572.2 624.29l-162.32-96.34-110.28 116.3c-10.61 13.48-30.15 15.81-43.64 5.18z" p-id="1815" fill="#707070"></path><path d="M827.65 909.29h-631.3c-45.01 0-81.64-36.62-81.64-81.64v-631.3c0-45.02 36.62-81.64 81.64-81.64h631.31c45.01 0 81.64 36.62 81.64 81.64v631.3c-0.01 45.02-36.63 81.64-81.65 81.64z m-631.3-732.41c-10.74 0-19.47 8.74-19.47 19.47v631.3c0 10.73 8.74 19.47 19.47 19.47h631.31c10.74 0 19.47-8.74 19.47-19.47v-631.3c0-10.73-8.74-19.47-19.47-19.47H196.35z" p-id="1816" fill="#707070"></path></svg>