<svg t="1694417034349" class="icon" viewBox="0 0 1113 1024" version="1.1" xmlns="http://www.w3.org/2000/svg" p-id="1434" width="64" height="64"><path d="M1099.307109 459.121949L581.406443 8.09943a37.835907 37.835907 0 0 0-46.282454 0l-517.669254 451.253931a37.7202 37.7202 0 1 0 46.282455 59.125836l24.761113-19.554338v458.427712a66.762441 66.762441 0 0 0 66.531028 66.646735H442.55908a37.7202 37.7202 0 0 0 37.7202-37.835907V550.41409h155.74046v435.749309A37.7202 37.7202 0 0 0 673.971352 1023.999306h287.529749a66.646734 66.646734 0 0 0 66.531028-66.646735V498.924859l24.529701 19.322925a37.025964 37.025964 0 0 0 23.141228 8.09943 37.604494 37.604494 0 0 0 23.141227-67.225265zM952.591729 948.790317H711.460141V541.504718a66.762441 66.762441 0 0 0-66.531029-67.109559h-173.559204a66.762441 66.762441 0 0 0-66.531028 66.646734V948.790317H163.938704V439.683318L558.265216 85.853953 952.591729 439.683318z" p-id="1435" fill="#707070"></path></svg>