<svg t="1695187170724" class="icon" viewBox="0 0 1024 1024" version="1.1" xmlns="http://www.w3.org/2000/svg" p-id="4939" width="64" height="64"><path d="M938.798 483.83a37.115 37.115 0 0 0 74.033-4.645l-0.544-7.463C991.68 213.202 772.201 10.625 512.494 10.625 235.984 10.625 11.07 235.54 11.07 512.05c0 276.46 224.915 501.375 501.424 501.375 206.58 0 394.823-129.63 468.46-322.52a37.066 37.066 0 1 0-69.238-26.44c-62.814 164.373-223.284 274.878-399.271 274.878-235.639 0-427.293-191.654-427.293-427.243 0-235.639 191.654-427.293 427.293-427.293 221.306 0 408.364 172.528 425.909 393.044l0.444 5.98z" fill="#707070" p-id="4940"></path><path d="M217.254 512a47.938 47.938 0 1 0 95.877 0 47.938 47.938 0 0 0-95.877 0z m246.808 0a47.938 47.938 0 1 0 95.876 0 47.938 47.938 0 0 0-95.876 0zM759.4 464.111a47.938 47.938 0 1 0 0 95.877 47.938 47.938 0 0 0 0-95.877z" fill="#707070" p-id="4941"></path></svg>