<svg t="1694401592866" class="icon" viewBox="0 0 1024 1024" version="1.1" xmlns="http://www.w3.org/2000/svg" p-id="3316" width="128" height="128"><path d="M341.333333 85.333333c23.466667 0 42.666667 19.2 42.666667 42.666667v213.333333c0 23.466667-19.2 42.666667-42.666667 42.666667H128c-23.466667 0-42.666667-19.2-42.666667-42.666667V128c0-23.466667 19.2-42.666667 42.666667-42.666667h213.333333m0-85.333333H128C57.6 0 0 57.6 0 128v213.333333c0 70.4 57.6 128 128 128h213.333333c70.4 0 128-57.6 128-128V128c0-70.4-57.6-128-128-128zM341.333333 640c23.466667 0 42.666667 19.2 42.666667 42.666667v213.333333c0 23.466667-19.2 42.666667-42.666667 42.666667H128c-23.466667 0-42.666667-19.2-42.666667-42.666667V682.666667c0-23.466667 19.2-42.666667 42.666667-42.666667h213.333333m0-85.333333H128c-70.4 0-128 57.6-128 128v213.333333c0 70.4 57.6 128 128 128h213.333333c70.4 0 128-57.6 128-128V682.666667c0-70.4-57.6-128-128-128zM981.333333 183.466667H597.333333c-23.466667 0-42.666667-19.2-42.666666-42.666667s19.2-42.666667 42.666666-42.666667h384c23.466667 0 42.666667 19.2 42.666667 42.666667s-19.2 42.666667-42.666667 42.666667zM981.333333 371.2H597.333333c-23.466667 0-42.666667-19.2-42.666666-42.666667s19.2-42.666667 42.666666-42.666666h384c23.466667 0 42.666667 19.2 42.666667 42.666666s-19.2 42.666667-42.666667 42.666667z" p-id="3317" fill="#707070"></path><path d="M981.333333 738.133333H597.333333c-23.466667 0-42.666667-19.2-42.666666-42.666666s19.2-42.666667 42.666666-42.666667h384c23.466667 0 42.666667 19.2 42.666667 42.666667s-19.2 42.666667-42.666667 42.666666zM981.333333 925.866667H597.333333c-23.466667 0-42.666667-19.2-42.666666-42.666667s19.2-42.666667 42.666666-42.666667h384c23.466667 0 42.666667 19.2 42.666667 42.666667s-19.2 42.666667-42.666667 42.666667z" p-id="3318" fill="#707070"></path></svg>