<svg t="1694167659969" class="icon" viewBox="0 0 1024 1024" version="1.1" xmlns="http://www.w3.org/2000/svg" p-id="13556" width="128" height="128"><path d="M357 484H127C57 484 0 427 0 357V127C0 57 57 0 127 0h230c70 0 127 57 127 127v230c0 70-57 127-127 127zM127 56c-39.1 0-71 31.9-71 71v230c0 39.1 31.9 71 71 71h230c39.1 0 71-31.9 71-71V127c0-39.1-31.9-71-71-71H127zM357 1024H127C57 1024 0 967 0 897V667c0-70 57-127 127-127h230c70 0 127 57 127 127v230c0 70-57 127-127 127zM127 596c-39.1 0-71 31.9-71 71v230c0 39.1 31.9 71 71 71h230c39.1 0 71-31.9 71-71V667c0-39.1-31.9-71-71-71H127zM996 156.6H568c-15.4 0-28-12.6-28-28s12.6-28 28-28h428c15.4 0 28 12.6 28 28s-12.6 28-28 28zM996 386H568c-15.4 0-28-12.6-28-28s12.6-28 28-28h428c15.4 0 28 12.6 28 28s-12.6 28-28 28zM996 720.6H568c-15.4 0-28-12.6-28-28s12.6-28 28-28h428c15.4 0 28 12.6 28 28s-12.6 28-28 28zM996 950H568c-15.4 0-28-12.6-28-28s12.6-28 28-28h428c15.4 0 28 12.6 28 28s-12.6 28-28 28z" p-id="13557" fill="#bfbfbf"></path></svg>